<svg width="43" height="40" viewBox="0 0 43 40" fill="none" xmlns="http://www.w3.org/2000/svg">
<path d="M41.6505 4.4054C42.017 4.59844 42.4705 4.45783 42.6636 4.09135C42.8566 3.72487 42.716 3.27129 42.3495 3.07825L41.6505 4.4054ZM21.9575 15.5933L21.4696 16.1629L21.9575 15.5933ZM5.43935 39.4982C5.71448 39.8078 6.18853 39.8358 6.49817 39.5607L11.544 35.0772C11.8537 34.802 11.8817 34.328 11.6065 34.0183C11.3314 33.7087 10.8574 33.6807 10.5477 33.9559L6.06249 37.9412L2.07717 33.456C1.80204 33.1463 1.32799 33.1183 1.01835 33.3935C0.70871 33.6686 0.680733 34.1427 0.955862 34.4523L5.43935 39.4982ZM42.3495 3.07825C35.4023 -0.58105 26.8521 -0.451725 21.6555 2.10598C19.0547 3.38613 17.1412 5.36054 16.8984 7.92089C16.6565 10.4719 18.1064 13.2823 21.4696 16.1629L22.4454 15.0237C19.236 12.2748 18.2174 9.90021 18.3917 8.0625C18.5651 6.2341 19.9526 4.61603 22.3179 3.4518C27.0539 1.12077 35.0976 0.953809 41.6505 4.4054L42.3495 3.07825ZM21.4696 16.1629C23.8547 18.2058 25.5456 19.3018 26.6559 19.6565C27.1722 19.8215 27.8508 19.9171 28.3483 19.481C28.8565 19.0356 28.8102 18.3631 28.7139 17.934C28.5036 16.9979 27.7527 15.7705 26.7434 14.6065C25.7138 13.4192 24.3361 12.2059 22.7608 11.3224C21.1872 10.4398 19.3735 9.86321 17.4956 10.023C15.5969 10.1845 13.7185 11.0922 12.0334 13.0214C8.71304 16.8227 6.09628 24.6381 5.2513 38.9558L6.7487 39.0442C7.5911 24.7702 10.1959 17.4051 13.1631 14.0082C14.6216 12.3384 16.1534 11.6426 17.6228 11.5176C19.113 11.3908 20.6254 11.8446 22.0271 12.6307C23.4272 13.416 24.6742 14.5098 25.6101 15.5892C26.5664 16.692 27.1219 17.6912 27.2503 18.2627C27.3233 18.5874 27.2044 18.489 27.3595 18.3531C27.5039 18.2265 27.5488 18.3671 27.1125 18.2277C26.3174 17.9737 24.8267 17.0633 22.4454 15.0237L21.4696 16.1629Z" fill="#4F4F4F"/>
</svg>
