<svg width="1142" height="853" viewBox="0 0 1142 853" fill="none" xmlns="http://www.w3.org/2000/svg">
<path d="M218.65 4.443C219.017 4.63604 219.471 4.49543 219.664 4.12895C219.857 3.76246 219.716 3.30888 219.35 3.11585L218.65 4.443ZM198.957 15.6309L198.47 16.2005L198.47 16.2005L198.957 15.6309ZM182.439 39.5358C182.714 39.8454 183.189 39.8734 183.498 39.5983L188.544 35.1148C188.854 34.8396 188.882 34.3656 188.607 34.0559C188.331 33.7463 187.857 33.7183 187.548 33.9935L183.062 37.9788L179.077 33.4936C178.802 33.1839 178.328 33.1559 178.018 33.4311C177.709 33.7062 177.681 34.1802 177.956 34.4899L182.439 39.5358ZM219.35 3.11585C212.402 -0.543453 203.852 -0.414128 198.656 2.14358C196.055 3.42372 194.141 5.39814 193.898 7.95848C193.656 10.5095 195.106 13.3199 198.47 16.2005L199.445 15.0613C196.236 12.3124 195.217 9.9378 195.392 8.1001C195.565 6.27169 196.953 4.65363 199.318 3.4894C204.054 1.15837 212.098 0.991406 218.65 4.443L219.35 3.11585ZM198.47 16.2005C200.855 18.2434 202.546 19.3394 203.656 19.6941C204.172 19.8591 204.851 19.9547 205.348 19.5186C205.856 19.0732 205.81 18.4007 205.714 17.9716C205.504 17.0355 204.753 15.8081 203.743 14.6441C202.714 13.4567 201.336 12.2435 199.761 11.36C198.187 10.4774 196.373 9.9008 194.496 10.0606C192.597 10.2221 190.719 11.1298 189.033 13.059C185.713 16.8603 183.096 24.6757 182.251 38.9934L183.749 39.0818C184.591 24.8078 187.196 17.4427 190.163 14.0458C191.622 12.376 193.153 11.6802 194.623 11.5552C196.113 11.4284 197.625 11.8822 199.027 12.6683C200.427 13.4535 201.674 14.5474 202.61 15.6268C203.566 16.7296 204.122 17.7288 204.25 18.3003C204.323 18.625 204.204 18.5266 204.36 18.3907C204.504 18.2641 204.549 18.4047 204.112 18.2653C203.317 18.0112 201.827 17.1009 199.445 15.0613L198.47 16.2005Z" fill="#4F4F4F"/>
<path d="M920.335 4.41812C919.965 4.60336 919.514 4.45319 919.329 4.08271C919.144 3.71223 919.294 3.26172 919.665 3.07648L920.335 4.41812ZM941.156 15.6224L941.629 16.2043L941.156 15.6224ZM958.562 39.5721C958.288 39.8826 957.814 39.9121 957.504 39.6379L952.444 35.1703C952.133 34.8961 952.104 34.4222 952.378 34.1117C952.652 33.8012 953.126 33.7717 953.436 34.0459L957.934 38.0171L961.905 33.5193C962.18 33.2088 962.653 33.1794 962.964 33.4535C963.275 33.7277 963.304 34.2016 963.03 34.5121L958.562 39.5721ZM919.665 3.07648C926.98 -0.581417 935.979 -0.449745 941.443 2.10295C944.17 3.3771 946.196 5.34976 946.454 7.93107C946.712 10.5062 945.17 13.3257 941.629 16.2043L940.683 15.0405C944.08 12.2784 945.144 9.90257 944.962 8.08019C944.78 6.26401 943.323 4.63703 940.808 3.46194C935.787 1.11617 927.27 0.950966 920.335 4.41812L919.665 3.07648ZM941.629 16.2043C939.11 18.2524 937.332 19.3441 936.173 19.6956C935.635 19.859 934.954 19.9466 934.452 19.5293C933.917 19.0841 933.963 18.3987 934.067 17.9597C934.29 17.0153 935.085 15.784 936.149 14.6201C937.235 13.4311 938.686 12.2185 940.343 11.3364C941.998 10.4551 943.898 9.88379 945.859 10.0422C947.839 10.2021 949.81 11.101 951.587 13.0319C955.092 16.8413 957.856 24.678 958.749 39.0291L957.251 39.1222C956.363 24.8247 953.615 17.4508 950.483 14.0476C948.942 12.3723 947.313 11.6645 945.738 11.5373C944.144 11.4086 942.533 11.8698 941.048 12.6605C939.564 13.4505 938.245 14.5495 937.256 15.6318C936.244 16.7392 935.661 17.7389 935.527 18.3051C935.452 18.6214 935.574 18.5113 935.412 18.3762C935.283 18.2691 935.271 18.4018 935.738 18.2601C936.59 18.0016 938.171 17.0829 940.683 15.0405L941.629 16.2043Z" fill="#4F4F4F"/>
<path d="M1141 852C1141 777.147 1126.26 703.026 1097.61 633.87C1068.97 564.715 1026.98 501.879 974.051 448.949C921.121 396.02 858.285 354.034 789.13 325.389C719.974 296.743 645.853 282 571 282C496.147 282 422.026 296.743 352.87 325.389C283.715 354.034 220.879 396.02 167.949 448.949C115.02 501.879 73.0338 564.715 44.3886 633.87C15.7435 703.026 0.999993 777.147 1 852L571 852H1141Z" stroke="url(#paint0_linear_1104_5333)" stroke-width="1.8"/>
<path d="M1113 852C1113 708.253 1055.9 570.393 954.252 468.748C852.607 367.103 714.747 310 571 310C427.253 310 289.393 367.103 187.748 468.748C86.1034 570.393 29 708.253 29 852L571 852H1113Z" fill="url(#paint1_linear_1104_5333)"/>
<defs>
<linearGradient id="paint0_linear_1104_5333" x1="571" y1="282" x2="571" y2="713.5" gradientUnits="userSpaceOnUse">
<stop stop-color="#F0F0F0"/>
<stop offset="1" stop-color="#F0F0F0" stop-opacity="0"/>
</linearGradient>
<linearGradient id="paint1_linear_1104_5333" x1="571" y1="310" x2="571" y2="666.5" gradientUnits="userSpaceOnUse">
<stop stop-color="#F8F8F8"/>
<stop offset="1" stop-color="#F8F8F8" stop-opacity="0"/>
</linearGradient>
</defs>
</svg>
