<svg width="1142" height="965" viewBox="0 0 1142 965" fill="none" xmlns="http://www.w3.org/2000/svg">
<path d="M150.65 4.4054C151.017 4.59844 151.471 4.45783 151.664 4.09135C151.857 3.72487 151.716 3.27129 151.35 3.07825L150.65 4.4054ZM130.957 15.5933L130.47 16.1629L130.957 15.5933ZM114.439 39.4982C114.714 39.8078 115.189 39.8358 115.498 39.5607L120.544 35.0772C120.854 34.802 120.882 34.328 120.607 34.0183C120.331 33.7087 119.857 33.6807 119.548 33.9559L115.062 37.9412L111.077 33.456C110.802 33.1463 110.328 33.1183 110.018 33.3935C109.709 33.6686 109.681 34.1427 109.956 34.4523L114.439 39.4982ZM151.35 3.07825C144.402 -0.581051 135.852 -0.451725 130.656 2.10598C128.055 3.38613 126.141 5.36054 125.898 7.92089C125.656 10.4719 127.106 13.2823 130.47 16.1629L131.445 15.0237C128.236 12.2748 127.217 9.90021 127.392 8.0625C127.565 6.2341 128.953 4.61603 131.318 3.4518C136.054 1.12077 144.098 0.953808 150.65 4.4054L151.35 3.07825ZM130.47 16.1629C132.855 18.2058 134.546 19.3018 135.656 19.6565C136.172 19.8215 136.851 19.9171 137.348 19.481C137.856 19.0356 137.81 18.3631 137.714 17.934C137.504 16.9979 136.753 15.7705 135.743 14.6065C134.714 13.4192 133.336 12.2059 131.761 11.3224C130.187 10.4398 128.373 9.86321 126.496 10.023C124.597 10.1845 122.719 11.0922 121.033 13.0214C117.713 16.8227 115.096 24.6381 114.251 38.9558L115.749 39.0442C116.591 24.7702 119.196 17.4051 122.163 14.0082C123.622 12.3384 125.153 11.6426 126.623 11.5176C128.113 11.3908 129.625 11.8446 131.027 12.6307C132.427 13.416 133.674 14.5098 134.61 15.5892C135.566 16.692 136.122 17.6912 136.25 18.2627C136.323 18.5874 136.204 18.489 136.36 18.3531C136.504 18.2265 136.549 18.3671 136.112 18.2277C135.317 17.9737 133.827 17.0633 131.445 15.0237L130.47 16.1629Z" fill="#4F4F4F"/>
<path d="M1001.34 4.41812C1000.96 4.60336 1000.51 4.45319 1000.33 4.08271C1000.14 3.71223 1000.29 3.26172 1000.66 3.07648L1001.34 4.41812ZM1022.16 15.6224L1022.63 16.2043L1022.16 15.6224ZM1039.56 39.5721C1039.29 39.8826 1038.81 39.9121 1038.5 39.6379L1033.44 35.1703C1033.13 34.8961 1033.1 34.4222 1033.38 34.1117C1033.65 33.8012 1034.13 33.7717 1034.44 34.0459L1038.93 38.0171L1042.91 33.5193C1043.18 33.2088 1043.65 33.1794 1043.96 33.4535C1044.27 33.7277 1044.3 34.2016 1044.03 34.5121L1039.56 39.5721ZM1000.66 3.07648C1007.98 -0.581417 1016.98 -0.449745 1022.44 2.10295C1025.17 3.3771 1027.2 5.34976 1027.45 7.93107C1027.71 10.5062 1026.17 13.3257 1022.63 16.2043L1021.68 15.0405C1025.08 12.2784 1026.14 9.90257 1025.96 8.08019C1025.78 6.26401 1024.32 4.63703 1021.81 3.46194C1016.79 1.11617 1008.27 0.950966 1001.34 4.41812L1000.66 3.07648ZM1022.63 16.2043C1020.11 18.2524 1018.33 19.3441 1017.17 19.6956C1016.63 19.859 1015.95 19.9466 1015.45 19.5293C1014.92 19.0841 1014.96 18.3987 1015.07 17.9597C1015.29 17.0153 1016.09 15.784 1017.15 14.6201C1018.23 13.4311 1019.69 12.2185 1021.34 11.3364C1023 10.4551 1024.9 9.88379 1026.86 10.0422C1028.84 10.2021 1030.81 11.101 1032.59 13.0319C1036.09 16.8413 1038.86 24.678 1039.75 39.0291L1038.25 39.1222C1037.36 24.8247 1034.61 17.4508 1031.48 14.0476C1029.94 12.3723 1028.31 11.6645 1026.74 11.5373C1025.14 11.4086 1023.53 11.8698 1022.05 12.6605C1020.56 13.4505 1019.24 14.5495 1018.26 15.6318C1017.24 16.7392 1016.66 17.7389 1016.53 18.3051C1016.45 18.6214 1016.57 18.5113 1016.41 18.3762C1016.28 18.2691 1016.27 18.4018 1016.74 18.2601C1017.59 18.0016 1019.17 17.0829 1021.68 15.0405L1022.63 16.2043Z" fill="#4F4F4F"/>
<path d="M1141 942C1141 867.147 1126.26 793.026 1097.61 723.87C1068.97 654.715 1026.98 591.879 974.051 538.949C921.121 486.02 858.285 444.034 789.13 415.389C719.974 386.743 645.853 372 571 372C496.147 372 422.026 386.743 352.87 415.389C283.715 444.034 220.879 486.02 167.949 538.949C115.02 591.879 73.0338 654.715 44.3886 723.87C15.7435 793.026 0.999993 867.147 1 942L571 942H1141Z" stroke="url(#paint0_linear_1104_5333)" stroke-width="1.8"/>
<path d="M1113 942C1113 798.253 1055.9 660.393 954.252 558.748C852.607 457.103 714.747 400 571 400C427.253 400 289.393 457.103 187.748 558.748C86.1034 660.393 29 798.253 29 942L571 942H1113Z" fill="url(#paint1_linear_1104_5333)"/>
<defs>
<linearGradient id="paint0_linear_1104_5333" x1="571" y1="372" x2="571" y2="803.5" gradientUnits="userSpaceOnUse">
<stop stop-color="#F0F0F0"/>
<stop offset="1" stop-color="#F0F0F0" stop-opacity="0"/>
</linearGradient>
<linearGradient id="paint1_linear_1104_5333" x1="571" y1="400" x2="571" y2="756.5" gradientUnits="userSpaceOnUse">
<stop stop-color="#F8F8F8"/>
<stop offset="1" stop-color="#F8F8F8" stop-opacity="0"/>
</linearGradient>
</defs>
</svg>
