<svg width="24" height="25" viewBox="0 0 24 25" fill="none" xmlns="http://www.w3.org/2000/svg">
<g clip-path="url(#clip0_1098_5314)">
<path d="M13.0984 0.5H14.6528L15.6684 0.520725L16.4974 0.541451L16.9326 0.562176C18.2176 0.624352 19.0881 0.831606 19.8342 1.12176C20.6218 1.43264 21.285 1.84715 21.9689 2.51036C22.6321 3.17358 23.0466 3.85751 23.3575 4.64508C23.6269 5.32902 23.8135 6.09585 23.8964 7.15285L23.9585 8.29275L23.9793 9.37047L24 11.4223V15.2772L23.9793 16.4793L23.9378 17.4741C23.8756 18.7591 23.6684 19.6295 23.3782 20.3964C23.0674 21.1839 22.6528 21.8472 21.9896 22.5311C21.3264 23.1943 20.6632 23.6088 19.8549 23.9197C19.171 24.1891 18.4041 24.3756 17.3471 24.4585L16.0622 24.5207L14.9223 24.5415L13.0777 24.5622H9.2228L8.02073 24.5415L7.02591 24.5C5.74093 24.4378 4.87047 24.2306 4.12435 23.9404C3.33679 23.6295 2.67358 23.215 1.98964 22.5518C1.32642 21.8886 0.911917 21.2047 0.601036 20.4171C0.331606 19.7332 0.145078 18.9663 0.0621762 17.9093L0.0207254 17.0596L0 16.2306L0 15.1528V13.2461V9.82642L0.0207254 8.81088L0.0414508 7.98187L0.0621762 7.54663C0.124352 6.28238 0.331606 5.41192 0.621762 4.64508C0.932642 3.85751 1.34715 3.1943 2.01036 2.51036C2.67357 1.84715 3.35751 1.43264 4.14508 1.12176C4.82902 0.852332 5.59585 0.665803 6.65285 0.582902L7.50259 0.541451L8.33161 0.520725L9.32642 0.5H10.8808C10.9016 0.5 13.0984 0.5 13.0984 0.5ZM14.6114 2.67617H9.36788L8.45596 2.69689L7.12953 2.73834C6.79793 2.75907 6.46632 2.77979 6.13471 2.82124L5.94819 2.84197C5.82383 2.86269 5.67876 2.88342 5.5544 2.92487L5.40933 2.96632C5.36788 2.98705 5.32642 2.98705 5.28497 3.00777L5.01554 3.09067L4.89119 3.13212C4.33161 3.3601 3.93782 3.60881 3.50259 4.02332C3.08808 4.43782 2.81865 4.85233 2.6114 5.41192L2.54922 5.68135L2.50777 5.8057C2.40415 6.15803 2.30052 6.65544 2.23834 7.33938L2.21762 7.85751L2.17617 8.93523L2.15544 10.7798V15.0492L2.17617 16.3756L2.21762 17.3497C2.23834 17.7021 2.25907 18.0544 2.32124 18.4067L2.34197 18.5725C2.34197 18.5933 2.34197 18.6347 2.36269 18.6554L2.40415 18.8005L2.4456 18.9456C2.4456 18.9663 2.46632 18.987 2.46632 19.0078L2.50777 19.1321L2.54922 19.2565L2.56995 19.3187L2.65285 19.5674C2.8601 20.1269 3.12953 20.5207 3.54404 20.956C3.95855 21.3705 4.37306 21.6399 4.93264 21.8472L5.18135 21.9301L5.28497 21.9715L5.34715 21.9922L5.4715 22.0337C5.49223 22.0337 5.51295 22.0544 5.53368 22.0544L5.67876 22.0959L5.82383 22.1373L5.98964 22.158C6.30052 22.2202 6.67358 22.2617 7.12953 22.2824L8.60104 22.3446L10.5492 22.3653H14.7772L15.8549 22.3446L16.829 22.3031C17.285 22.2824 17.658 22.2409 17.9689 22.1788L18.1347 22.158L18.2798 22.1166L18.4456 22.0544L18.5078 22.0337L18.6321 21.9922L18.7565 21.9508L18.8187 21.9301L19.0674 21.8472C19.6269 21.6399 20.0207 21.3705 20.456 20.956C20.8705 20.5415 21.1399 20.1269 21.3471 19.5674L21.4301 19.3187C21.5544 18.9456 21.6788 18.4275 21.7409 17.6399L21.8031 16.3756L21.8238 15.0907V13.2461V9.90933L21.8031 8.62435L21.7617 7.65026C21.7409 7.3601 21.7202 7.04922 21.6788 6.75907L21.658 6.57254C21.6373 6.48964 21.6373 6.40674 21.6166 6.32383L21.5751 6.17876C21.5544 6.13731 21.5544 6.07513 21.5337 6.03368L21.4922 5.90933L21.4715 5.84715L21.3679 5.51554L21.3471 5.45337C21.1192 4.89378 20.8705 4.5 20.456 4.06477C20.0414 3.62953 19.6269 3.38083 19.0674 3.17358L18.943 3.13212L18.6736 3.04922L18.6114 2.98705L18.4456 2.9456C18.114 2.86269 17.6995 2.77979 17.1399 2.73834L16.2487 2.69689L15.5233 2.67617H14.6114Z" fill="#383D38"/>
<path d="M12.0002 6.34477C15.3991 6.34477 18.1556 9.10125 18.1556 12.5002C18.1556 15.8992 15.3991 18.6557 12.0002 18.6557C8.6012 18.6557 5.84473 15.8992 5.84473 12.5002C5.84473 9.10125 8.6012 6.34477 12.0002 6.34477ZM12.0002 8.50021C9.78255 8.50021 8.00017 10.2826 8.00017 12.5002C8.00017 14.7178 9.78255 16.5002 12.0002 16.5002C14.2178 16.5002 16.0002 14.7178 16.0002 12.5002C16.0002 10.2826 14.1971 8.50021 12.0002 8.50021ZM19.8344 6.09607C19.8551 6.88363 19.2333 7.54684 18.4458 7.56757C17.6582 7.58829 16.995 6.96653 16.9743 6.17897C16.9743 6.15824 16.9743 6.11679 16.9743 6.09607C16.995 5.3085 17.6582 4.66602 18.4458 4.70747C19.2126 4.70747 19.8136 5.32923 19.8344 6.09607Z" fill="#383D38"/>
</g>
<defs>
<clipPath id="clip0_1098_5314">
<rect width="24" height="24" fill="white" transform="translate(0 0.5)"/>
</clipPath>
</defs>
</svg>
